<svg id="Layer_1" width="75" height="75" data-name="Layer 1" xmlns="http://www.w3.org/2000/svg" viewBox="0 0 145.88 144.56"><defs><style>.cls-1{opacity:0.95;}.cls-2{fill:#95C9E6;}</style></defs><title>catagram</title><g class="cls-1"><path class="cls-2" d="M121.5,8.21q-4.12,7.88-8.24,15.77a10.83,10.83,0,0,1-3.11,4.15c-2,1.37-4.59,1.27-7,1.11L43.61,25.41a12.31,12.31,0,0,1-5-1.06c-2-1.08-3.22-3.15-4.34-5.12Q28.79,9.62,23.33,0a139,139,0,0,0-22,96.25c.8,5.59,2,11.24,4.75,16.17,17,30.25,55.64,34.56,87.11,31.16a75.81,75.81,0,0,0,14.84-3.05c21-6.69,33.92-22.65,37-47.44A116.19,116.19,0,0,0,121.5,8.21Zm-94.42,93a72,72,0,0,1-16,.75c-1.67-.11-1.68-2.72,0-2.61a68.81,68.81,0,0,0,15.31-.66C28,98.45,28.73,101,27.08,101.23Zm2.4-11.74a68.41,68.41,0,0,0-14-4.1c-1.65-.3-.95-2.81.69-2.51a69.32,69.32,0,0,1,14,4.1C31.72,87.61,31,90.14,29.48,89.49ZM27.63,64.76c-2.17-3.73,2.39-11.82,7-8.94,2.91,1.82,2.57,6,.54,8.54C33.45,67,29.6,68.17,27.63,64.76Zm60.5,45.07c-3.94,5-11.67,5-16.52,1.34A15,15,0,0,1,66.08,101a15.93,15.93,0,0,1-6.81,7.44c-4.53,2.28-10.18,1.87-13.38-2.31-1-1.34,1.24-2.63,2.25-1.32,2.79,3.65,8.54,2.77,11.72.14s4.79-6.63,6-10.52l-.12,0a2.15,2.15,0,0,0-.47-.13,2.71,2.71,0,0,1-1-.52l-1.67-1.61a1.56,1.56,0,0,1-.33-1.27,8.27,8.27,0,0,1,.49-2.22,4.64,4.64,0,0,1,1.53-1.91c1.64-1.43,4.91-.41,6.35,1.46a1.58,1.58,0,0,1,.13,1.73c-.44.68-.81,1.64-1.22,1.89-.12.21-.28.3-.37.54a1.87,1.87,0,0,1,0,.32c-1.42,5.39-1,12.19,3.49,16.09,3.88,3.36,10.3,3.45,13.58-.71C87.32,106.67,89.15,108.53,88.13,109.83ZM98.84,67.26a5.56,5.56,0,0,1,4.21-5.44,4.83,4.83,0,0,1,5.68,3.9c.67,3-1,5.61-3,7.64a1.28,1.28,0,0,1-1.27.34l-.33-.15a.83.83,0,0,1-.35-.06C101.22,72.47,98.91,70.24,98.84,67.26Zm4.25,24.48,14.06-3.23c1.64-.38,2.33,2.13.7,2.51l-14.06,3.23C102.15,94.63,101.46,92.11,103.09,91.74Zm14.78,9.55-11,2.26c-1.64.34-2.33-2.18-.69-2.52l11-2.26C118.81,98.43,119.51,101,117.87,101.29Z" transform="translate(0)"/></g></svg>